<svg width="16" height="16" viewBox="0 0 16 16" fill="none" xmlns="http://www.w3.org/2000/svg">
<path d="M7.9999 2.40002C9.9719 2.40002 11.0903 3.65922 11.2527 5.17922H11.3023C12.5711 5.17922 13.5999 6.16882 13.5999 7.38962C13.5999 8.61042 12.5711 9.60002 11.3023 9.60002L10.7399 9.59922V9.60002H10.7159L9.9503 10.9928C9.89816 11.0838 9.81235 11.1507 9.71137 11.1791C9.61039 11.2074 9.50231 11.195 9.41041 11.1444C9.31852 11.0938 9.25016 11.0092 9.22006 10.9087C9.18997 10.8083 9.20054 10.7 9.2495 10.6072L9.8039 9.59922H8.3495V9.60002H8.3167L7.5503 10.9928C7.49816 11.0838 7.41235 11.1507 7.31137 11.1791C7.21039 11.2074 7.10231 11.195 7.01041 11.1444C6.91852 11.0938 6.85016 11.0092 6.82006 10.9087C6.78997 10.8083 6.80054 10.7 6.8495 10.6072L7.4039 9.60002H5.9167L5.1503 10.9928C5.09816 11.0838 5.01235 11.1507 4.91137 11.1791C4.81039 11.2074 4.70231 11.195 4.61041 11.1444C4.51852 11.0938 4.45016 11.0092 4.42006 10.9087C4.38997 10.8083 4.40054 10.7 4.4495 10.6072L5.0039 9.60002H4.6975C3.4287 9.60002 2.3999 8.61042 2.3999 7.38962C2.3999 6.21362 3.3535 5.25282 4.5575 5.18322L4.7471 5.17922C4.9111 3.64882 6.0279 2.40002 7.9999 2.40002ZM6.1983 11.4528C6.29036 11.5055 6.35775 11.5925 6.38566 11.6948C6.41356 11.7971 6.39969 11.9063 6.3471 11.9984L5.5471 13.3984C5.49315 13.4879 5.40636 13.5526 5.30527 13.5789C5.20419 13.6052 5.09683 13.5909 5.00614 13.5391C4.91546 13.4873 4.84864 13.402 4.81997 13.3016C4.79129 13.2012 4.80304 13.0935 4.8527 13.0016L5.6527 11.6016C5.70534 11.5096 5.79239 11.4422 5.8947 11.4143C5.99701 11.3864 6.10621 11.4002 6.1983 11.4528V11.4528ZM8.7471 11.9984C8.79676 11.9065 8.80851 11.7989 8.77984 11.6984C8.75117 11.598 8.68435 11.5128 8.59366 11.4609C8.50298 11.4091 8.39562 11.3948 8.29453 11.4211C8.19345 11.4474 8.10665 11.5122 8.0527 11.6016L7.2527 13.0016C7.20304 13.0935 7.19129 13.2012 7.21997 13.3016C7.24864 13.402 7.31546 13.4873 7.40614 13.5391C7.49683 13.5909 7.60419 13.6052 7.70527 13.5789C7.80636 13.5526 7.89315 13.4879 7.9471 13.3984L8.7471 11.9984Z" fill="#E2B714"/>
</svg>
